# xmcd
#
# Track frame offsets:
# 150
# 18755
# 38561
# 50867
# 70522
# 89127
# 104582
# 119437
# 134143
# 149149
# 166555
#
# Disc length: 2454 seconds
#
# Revision: 3
# Processed by: cddbd v1.5.1PL0 Copyright (c) Steve Scherf et al.
# Submitted via: Axialis_AX_CDPlayer 2.6
#
DISCID=a109940b
DTITLE=Josh Gracin - Josh Gracin
DYEAR=1900
DGENRE=
TTITLE0=I Want To Live
TTITLE1=Wheels
TTITLE2=Nothin' To Lose
TTITLE3=Brass Bed
TTITLE4=Peace Of Mind
TTITLE5=Endless Helpless Hoping
TTITLE6=No One To Share The Blame
TTITLE7=I Would Look Good With You
TTITLE8=Turn It Up
TTITLE9=The Long One
TTITLE10=The Other Little Soldier
EXTD=
EXTT0=
EXTT1=
EXTT2=
EXTT3=
EXTT4=
EXTT5=
EXTT6=
EXTT7=
EXTT8=
EXTT9=
EXTT10=
PLAYORDER=
